<svg width="1000" height="1000" viewBox="0 0 1000 1000" fill="none" xmlns="http://www.w3.org/2000/svg">
<path d="M363.636 0H454.545V90.9091H363.636V0Z" fill="#FFF45F"/>
<path d="M0 363.636H90.9091V454.545H0V363.636Z" fill="#FFF45F"/>
<path d="M0 545.455H90.9091V636.364H0V545.455Z" fill="#FFF45F"/>
<path d="M909.091 363.636H1000V454.545H909.091V363.636Z" fill="#FFF45F"/>
<path d="M909.091 545.455H1000V636.364H909.091V545.455Z" fill="#FFF45F"/>
<path d="M181.818 77.9221H272.727V168.831H181.818V77.9221Z" fill="#FFF45F"/>
<path d="M77.9221 181.818H168.831V272.727H77.9221V181.818Z" fill="#FFF45F"/>
<path d="M285.714 181.818H376.623V272.727H285.714V181.818Z" fill="#FFF45F"/>
<path d="M181.818 285.714H272.727V376.623H181.818V285.714Z" fill="#FFF45F"/>
<path d="M727.273 77.9221H818.182V168.831H727.273V77.9221Z" fill="#FFF45F"/>
<path d="M623.377 181.818H714.286V272.727H623.377V181.818Z" fill="#FFF45F"/>
<path d="M831.169 181.818H922.078V272.727H831.169V181.818Z" fill="#FFF45F"/>
<path d="M727.273 285.714H818.182V376.623H727.273V285.714Z" fill="#FFF45F"/>
<path d="M545.455 0H636.364V90.9091H545.455V0Z" fill="#FFF45F"/>
<path d="M363.636 1000H454.545V909.091H363.636V1000Z" fill="#FFF45F"/>
<path d="M181.818 922.078H272.727V831.169H181.818V922.078Z" fill="#FFF45F"/>
<path d="M77.9221 818.182H168.831V727.273H77.9221V818.182Z" fill="#FFF45F"/>
<path d="M285.714 818.182H376.623V727.273H285.714V818.182Z" fill="#FFF45F"/>
<path d="M181.818 714.286H272.727V623.377H181.818V714.286Z" fill="#FFF45F"/>
<path d="M727.273 922.078H818.182V831.169H727.273V922.078Z" fill="#FFF45F"/>
<path d="M623.377 818.182H714.286V727.273H623.377V818.182Z" fill="#FFF45F"/>
<path d="M831.169 818.182H922.078V727.273H831.169V818.182Z" fill="#FFF45F"/>
<path d="M727.273 714.286H818.182V623.377H727.273V714.286Z" fill="#FFF45F"/>
<path d="M545.455 1000H636.364V909.091H545.455V1000Z" fill="#FFF45F"/>
</svg>
